<svg version="1.1"  xmlns="http://www.w3.org/2000/svg"
	 viewBox="0 0 512 512" >
    <rect x="239.312" y="69.57" width="33.391" height="89.042" fill="#F7943A" />
    <rect x="89.778" y="131.509" transform="matrix(0.7071 -0.7071 0.7071 0.7071 -93.2864 126.846)" width="33.391" height="89.041" fill="#F7943A"/>
    <rect x="0.008" y="308.871" width="89.042" height="33.391" fill="#F7943A"/>
    <rect y="409.044" width="512.004" height="33.391" fill="#3B72D4" />
    <rect x="422.962" y="308.871" width="89.041" height="33.391" fill="#F7943A"/>
    <rect x="361.014" y="159.343" transform="matrix(0.7071 -0.7071 0.7071 0.7071 -5.6994 338.3162)" width="89.039" height="33.391" fill="#F7943A"/>
    <path d="M256.004,203.137c-67.618,0-122.433,54.816-122.433,122.433c0,20.04,4.816,38.954,13.352,55.651h218.163c8.536-16.698,13.352-35.611,13.352-55.651C378.438,257.952,323.622,203.137,256.004,203.137z" fill="#F7943A"/>
</svg>
